<?xml version="1.0" encoding="utf-8"?>
<!-- Generator: Adobe Illustrator 27.8.0, SVG Export Plug-In . SVG Version: 6.00 Build 0)  -->
<svg version="1.1" id="Layer_1" xmlns="http://www.w3.org/2000/svg" xmlns:xlink="http://www.w3.org/1999/xlink" x="0px" y="0px"
	 viewBox="0 0 200 200" style="enable-background:new 0 0 200 200;" xml:space="preserve">
<style type="text/css">
	.st0{fill:#D2A2D3;}
	.st1{fill:#A546A5;}
	.st2{fill:#F3E8F3;}
	.st3{fill:#F2E7F2;}
	.st4{fill:#FFFFFF;}
</style>
<g>
	<path class="st0" d="M102,178.6l-2.1,1.3l-4.8-3.1v21.1l4.6-2.9L102,178.6 M147.9,150l-6.6,4.2v14l4.6-2.9L147.9,150 M60.2,154.5
		l-6.5-4.2v21.1l4.6-2.9L60.2,154.5 M59.9,112.4c0.3-0.4,0.7-0.8,1-1.3c0.4-0.6,0.7-1.1,0.9-1.6c0.2-0.3,0.6-0.7,1-1
		c0.5-0.4,1.1-0.6,1.7-0.7c-0.5-0.5-1.1-1.1-1.8-1.7c-1.5-1.2-2.9-2.1-4.3-2.6c-2.8-1.1-4.8-1.1-6,0.1c-0.7,0.7-1.3,1.9-1.6,3.5
		c-0.3,1.5-0.7,2.4-1.2,2.8c-0.6,0.4-1.4,0.6-2.2,0.5h-0.7c-0.2-1.1-0.4-2.2-0.4-3.3c-0.2-4.4,0.9-7.3,3.5-8.9
		c0.6-0.4,1.3-0.7,2.1-0.8c2.2-0.5,4.7,0.1,7.5,1.8c2.4,1.4,4.6,3.2,6.5,5.5c1.2,1.4,2.4,3,3.5,4.8c2.9,4.7,4.5,9.2,4.7,13.6
		c0.2,4.4-0.9,7.3-3.5,8.9c-2.5,1.6-5.8,1.3-9.5-1c-1-0.6-2.1-1.3-3-2.1c-0.7,0-1.3-0.1-1.9-0.3c-0.7-0.2-1.4-0.6-2.3-1.1
		c-0.9-0.7-1.6-1.2-2-1.5c-1.5-1-2.8-1-4,0c-0.3,0.3-0.7,0.6-1.1,1c3.9,5.8,8.3,10.1,13.4,13c5.7,3.3,10.3,3.7,14.1,1.4
		c1-0.6,1.8-1.3,2.5-2.1c2-2.5,2.9-6.2,2.7-11c-0.4-6.5-2.7-13.2-6.8-20C68.5,101.4,63.6,96.3,58,93c-4.6-2.6-8.5-3.4-11.8-2.4
		c-0.8,0.2-1.5,0.6-2.2,1c-3.8,2.3-5.5,6.7-5.1,13.2c0.2,3.4,0.9,6.7,2.1,10.2c-0.4,0.7-0.7,1.5-1,2.4c-1.2,3.4-2.4,6.1-3.5,7.9
		c-0.3,0.5-0.9,1.3-1.8,2.4L35,128l0.5,0.2c0.6,0.4,1.1,0.5,1.4,0.5c0.3,0,0.7-0.2,1.1-0.6c0.2-0.1,0.3-0.3,0.5-0.5
		c0.6-0.7,1.4-1.8,2.3-3.2l0.2-0.3c0.1-0.2,0.3-0.6,0.5-1.1c0.1-0.3,0.3-0.7,0.5-1.1c0.1-0.2,0.2-0.5,0.3-0.7l0.6-1.5v-0.1
		c0.2-0.6,0.5-1.1,0.7-1.5c0.8-1.7,1.5-2.9,2.1-3.6l0.5-0.5c0.5-0.5,1-0.9,1.6-1.2c0.8-0.4,1.6-0.7,2.5-0.8h0.9c0.8,0,1.8,0.1,3,0.4
		c2.2,0.5,3.3,0.7,3.3,0.7C58.1,113.5,59.1,113.2,59.9,112.4 M119.7,32.9c-2.9-5-7.2-8.4-13.1-10.6c-5.9-2.2-11.5-2.4-16.9-0.6
		c-5.5,1.8-9,5.2-10.8,9.9s-1.3,9.6,1.6,14.6s7.2,8.5,13,10.7c5.9,2.2,11.5,2.4,16.9,0.5c5.4-1.8,9-5.2,10.8-9.9
		C123.1,42.6,122.5,37.7,119.7,32.9 M97,28.7c2.1-0.9,4.3-1,6.6-0.3c2.4,0.7,4.2,2.1,5.5,4.1s1.7,4,1.1,6c-0.5,2.1-1.8,3.5-3.9,4.5
		c-0.4,0.2-0.8,0.3-1.1,0.4c-0.3,0.5-0.6,0.9-1.1,1.3c-1.2,1.2-2.6,1.8-4.3,1.8c-1.7,0-3.1-0.6-4.3-1.8c-1.2-1.2-1.8-2.6-1.8-4.3
		c0-0.6,0.1-1.1,0.2-1.6c-1.1-1.8-1.4-3.7-0.8-5.6C93.6,31.1,95,29.6,97,28.7 M163.8,129.9V70.2l-55.3,35.1v59.7L163.8,129.9
		 M160.4,75.9v52.5l-48.8,31v-52.5L160.4,75.9 M173.3,54.4L141.6,34c2.3,6.9,2.2,13.9-0.4,20.7c-3.5,9.3-10.5,15.8-21,19.4
		S98.8,77.2,87.3,73C76,68.7,67.6,61.8,62,52.1c-3.5-6-5.2-11.9-5.1-17.8l-30.4,19l73.3,46.9l2.7-1.7
		C102.6,98.6,173.3,54.4,173.3,54.4z"/>
	<path class="st1" d="M141.2,154.2l-5.7,3.6l1.1,7.6l4.6,2.9L141.2,154.2 M26.6,132.9L46,145.3l3.2,23.2l4.6,2.9v-21.1l6.5,4.2
		l27.3,17.5l3.2,23.2l4.6,2.9v-21.1l4.8,3.1v-79.6H100l-73.3-47V132.9 M62.3,89.9c5.7,3.3,10.6,8.2,14.8,15.2
		c4.3,6.8,6.5,13.5,6.8,20c0.4,6.5-1.3,10.9-5.1,13.2c-0.7,0.4-1.5,0.8-2.2,1c-0.7,0.9-1.5,1.6-2.5,2.1c-3.8,2.3-8.4,1.9-14.1-1.4
		c-5.1-2.9-9.5-7.2-13.4-13c-0.5,0.4-1,1-1.6,1.6c-1.2,1.2-2,1.9-2.4,2.3c-1.2,1-2.4,1.8-3.4,2.3c-0.9,0.4-1.7,0.6-2.5,0.7
		c-1.1,0.1-2-0.2-2.9-0.9c-0.7-0.6-1.3-1.3-1.7-2.3c-0.5-1-0.7-1.8-0.7-2.4c0-0.9,0.5-1.2,1.6-0.9c0.4,0.1,0.8,0.3,1.3,0.5
		c0.9-1.1,1.5-1.9,1.8-2.4c1.1-1.9,2.3-4.6,3.5-7.9c0.3-0.9,0.6-1.7,1-2.4c-1.3-3.5-2-6.8-2.1-10.2c-0.3-6.5,1.4-10.9,5.1-13.2
		c0.7-0.4,1.4-0.8,2.2-1c0.7-0.9,1.5-1.6,2.5-2.2C52,86.3,56.7,86.8,62.3,89.9 M62.5,106.2c0.7,0.6,1.4,1.2,1.8,1.7
		c2.2,2.5,3.8,5,4.5,7.3c0.5,1.5,0.7,3.3,0.7,5.3c0,1.8-0.3,3.1-0.7,3.7c-0.7,1.1-2.2,2.2-4.7,3.3c-2.2,1-4.3,1.5-6.2,1.5
		c1,0.8,2,1.5,3,2.1c3.9,2.2,7,2.5,9.5,1c2.6-1.6,3.7-4.6,3.5-8.9c-0.2-4.4-1.8-8.9-4.7-13.6c-1.1-1.8-2.3-3.4-3.5-4.8
		c-2-2.3-4.2-4.2-6.5-5.5c-2.9-1.7-5.4-2.3-7.5-1.8c-0.7,0.2-1.4,0.4-2.1,0.8c-2.5,1.6-3.7,4.6-3.5,8.9c0.1,1.1,0.2,2.2,0.4,3.3h0.7
		c0.8,0.1,1.5-0.1,2.2-0.5c0.6-0.4,1-1.3,1.2-2.8c0.3-1.6,0.8-2.8,1.6-3.5c1.2-1.1,3.2-1.2,6-0.1C59.7,104.1,61,105,62.5,106.2
		 M141.6,34c-0.8-2.6-2-5.2-3.5-7.6c-5.6-9.6-14-16.6-25.4-20.8C101.4,1.2,90.5,0.8,80,4.4C69.6,8,62.5,14.4,59.1,23.8
		c-1.3,3.6-2,7-2,10.6c-0.1,5.9,1.7,11.8,5.1,17.8c5.6,9.6,14,16.6,25.3,20.8c11.3,4.3,22.3,4.7,32.8,1.1s17.5-10,21-19.4
		C143.8,47.9,143.9,40.9,141.6,34 M135.4,26.2c1.1,1.8,2,3.7,2.7,5.5c2.6,6.7,2.7,13.4,0.1,19.9C135,60,128.5,65.7,119,68.9
		c-9.6,3.2-19.6,2.9-29.9-0.9c-10.3-3.9-18.1-10.1-23-18.7c-3.5-6-5.1-11.9-4.6-17.8c0.2-2.6,0.8-5.2,1.8-7.7
		c3.2-8.3,9.5-14.1,19.2-17.3c9.5-3.2,19.6-2.9,29.9,1C122.7,11.3,130.3,17.6,135.4,26.2 M103.6,28.4c-2.4-0.7-4.6-0.6-6.6,0.3
		c-2.1,1-3.4,2.5-3.9,4.5c-0.5,1.9-0.2,3.8,0.8,5.6c0.1,0.1,0.2,0.3,0.3,0.4c1.3,2,3.1,3.3,5.5,4.1c1.9,0.6,3.8,0.6,5.5,0.1
		c0.4-0.1,0.8-0.3,1.1-0.4c2.1-0.9,3.4-2.4,3.9-4.5c0.6-2.1,0.2-4.1-1.1-6C107.8,30.4,105.9,29.1,103.6,28.4 M114.5,154.6l43.3-27.4
		V80.7l-43.3,27.4V154.6 M150.2,94.1l3.3-2.1v3.6l-3.3,2.1V94.1 M150.2,101.8l3.3-2.1v25.2l-3.3,2.1V101.8z"/>
	<path class="st2" d="M77.1,105.1c-4.3-6.8-9.1-11.9-14.8-15.2c-5.7-3.3-10.3-3.7-14.1-1.4c-1,0.6-1.8,1.3-2.5,2.2
		c3.3-1,7.2-0.2,11.8,2.4c5.7,3.3,10.6,8.2,14.8,15.2c4.3,6.8,6.5,13.5,6.8,20c0.3,4.9-0.6,8.5-2.7,11c0.8-0.2,1.5-0.6,2.2-1
		c3.8-2.3,5.5-6.6,5.1-13.2C83.7,118.6,81.4,112,77.1,105.1 M60.9,111.1c-0.3,0.5-0.6,0.9-1,1.3c-0.8,0.8-1.7,1.1-2.7,0.9
		c0,0-1.1-0.2-3.3-0.7c-1.2-0.2-2.2-0.4-3-0.4H50c-0.9,0.1-1.8,0.4-2.5,0.8c-0.6,0.3-1.1,0.7-1.6,1.2l-0.5,0.5
		c-0.6,0.7-1.3,1.9-2.1,3.6c-0.2,0.5-0.4,1-0.7,1.5v0.1l-0.6,1.5c-0.1,0.3-0.2,0.5-0.3,0.7c-0.2,0.4-0.4,0.8-0.5,1.1
		c-0.2,0.5-0.4,0.8-0.5,1.1l-0.2,0.3c-0.9,1.4-1.6,2.5-2.3,3.2c-0.2,0.2-0.3,0.4-0.5,0.5c-0.5,0.4-0.8,0.6-1.1,0.6s-0.7-0.2-1.4-0.5
		l-0.5-0.2l-0.3-0.2c-0.5-0.2-0.9-0.4-1.3-0.5c-1-0.3-1.6,0-1.6,0.9c0,0.6,0.3,1.4,0.7,2.4c0.5,1,1,1.7,1.7,2.3
		c0.9,0.7,1.8,1,2.9,0.9c0.8-0.1,1.7-0.3,2.5-0.7c1-0.5,2.1-1.2,3.4-2.3c0.4-0.4,1.2-1.1,2.4-2.3l1.6-1.6c0.4-0.4,0.8-0.8,1.1-1
		c1.2-1,2.5-1,4,0c0.4,0.3,1.1,0.8,2,1.5c0.8,0.6,1.6,0.9,2.3,1.1c0.6,0.2,1.3,0.2,1.9,0.3c1.9,0.1,3.9-0.4,6.2-1.5
		c2.5-1.2,4.1-2.3,4.7-3.3c0.4-0.7,0.7-1.9,0.7-3.7c0.1-2-0.2-3.7-0.7-5.3c-0.8-2.4-2.3-4.9-4.5-7.3c-0.6,0.1-1.2,0.4-1.7,0.7
		c-0.4,0.3-0.8,0.6-1,1C61.4,110,61.1,110.5,60.9,111.1z"/>
	<path class="st3" d="M138.1,31.7c-0.7-1.8-1.6-3.7-2.7-5.5c-5.1-8.6-12.8-14.8-23.1-18.7s-20.3-4.2-29.9-1
		c-9.6,3.2-16,8.9-19.2,17.3c-1,2.6-1.6,5.1-1.8,7.7c-0.5,5.9,1,11.7,4.6,17.8C71.1,58,78.7,64.1,89.1,68
		c10.3,3.8,20.3,4.2,29.9,0.9c9.5-3.2,16-8.9,19.2-17.3C140.7,45,140.6,38.3,138.1,31.7 M106.6,22.2c5.9,2.2,10.2,5.8,13.1,10.6
		s3.4,9.7,1.6,14.6c-1.8,4.8-5.5,8-10.8,9.9c-5.5,1.8-11,1.7-16.9-0.5c-5.9-2.2-10.2-5.8-13-10.7c-2.9-5-3.4-9.7-1.6-14.6
		c1.8-4.8,5.4-8.1,10.8-9.9C95.1,19.8,100.7,20,106.6,22.2 M173.3,54.4l-70.7,44.2l-2.7,1.7v79.6l2.1-1.3l33.5-20.9l5.7-3.6l6.6-4.2
		l25.5-16L173.3,54.4 M163.8,70.2v59.7l-55.3,35.1v-59.7L163.8,70.2 M160.4,128.4V75.9l-48.8,31v52.5L160.4,128.4 M157.8,127.2
		l-43.3,27.4v-46.4l43.3-27.4V127.2 M153.4,99.7l-3.3,2.1V127l3.3-2.1V99.7 M153.4,92l-3.3,2.1v3.6l3.3-2.1V92z"/>
	<path class="st4" d="M93.9,38.7c-0.1,0.5-0.2,1-0.2,1.6c0,1.7,0.6,3.1,1.8,4.3c1.2,1.2,2.6,1.8,4.3,1.8c1.7,0,3.1-0.6,4.3-1.8
		c0.4-0.4,0.8-0.9,1.1-1.3c-1.8,0.5-3.6,0.5-5.5-0.1c-2.4-0.7-4.2-2.1-5.5-4.1C94.1,39,94,38.8,93.9,38.7z"/>
</g>
</svg>
